<svg width="32" height="32" viewBox="0 0 32 32" fill="none" xmlns="http://www.w3.org/2000/svg">
<path d="M0 8C0 3.58172 3.58172 0 8 0H24C28.4183 0 32 3.58172 32 8V24C32 28.4183 28.4183 32 24 32H8C3.58172 32 0 28.4183 0 24V8Z" fill="white"/>
<path fill-rule="evenodd" clip-rule="evenodd" d="M24 1H8C4.13401 1 1 4.13401 1 8V24C1 27.866 4.13401 31 8 31H24C27.866 31 31 27.866 31 24V8C31 4.13401 27.866 1 24 1ZM8 0C3.58172 0 0 3.58172 0 8V24C0 28.4183 3.58172 32 8 32H24C28.4183 32 32 28.4183 32 24V8C32 3.58172 28.4183 0 24 0H8Z" fill="#DBDBDB"/>
<path d="M20.0799 18.6155L17.6311 16.1667L20.0798 13.718C21.0241 12.7738 19.5596 11.3093 18.6154 12.2536L16.1667 14.7023L13.7179 12.2535C12.7738 11.3095 11.3095 12.7738 12.2535 13.7179L14.7023 16.1667L12.2536 18.6154C11.3093 19.5596 12.7738 21.0241 13.718 20.0798L16.1667 17.6311L18.6155 20.0799C19.5597 21.0241 21.0241 19.5597 20.0799 18.6155Z" fill="#B5B5B5"/>
</svg>
