<svg width="16" height="16" viewBox="0 0 16 16" fill="none" xmlns="http://www.w3.org/2000/svg">
<path fill-rule="evenodd" clip-rule="evenodd" d="M3.99998 3.16675C2.80336 3.16675 1.83331 4.1368 1.83331 5.33341V12.0001C1.83331 13.1967 2.80336 14.1667 3.99998 14.1667H12C13.1966 14.1667 14.1666 13.1967 14.1666 12.0001V5.33341C14.1666 4.1368 13.1966 3.16675 12 3.16675H3.99998ZM0.833313 5.33341C0.833313 3.58451 2.25108 2.16675 3.99998 2.16675H12C13.7489 2.16675 15.1666 3.58451 15.1666 5.33341V12.0001C15.1666 13.749 13.7489 15.1667 12 15.1667H3.99998C2.25108 15.1667 0.833313 13.749 0.833313 12.0001V5.33341Z" fill="#363636"/>
<path fill-rule="evenodd" clip-rule="evenodd" d="M5.33331 0.833374C5.60946 0.833374 5.83331 1.05723 5.83331 1.33337V4.00004C5.83331 4.27618 5.60946 4.50004 5.33331 4.50004C5.05717 4.50004 4.83331 4.27618 4.83331 4.00004V1.33337C4.83331 1.05723 5.05717 0.833374 5.33331 0.833374Z" fill="#363636"/>
<path fill-rule="evenodd" clip-rule="evenodd" d="M10.6666 0.833374C10.9428 0.833374 11.1666 1.05723 11.1666 1.33337V4.00004C11.1666 4.27618 10.9428 4.50004 10.6666 4.50004C10.3905 4.50004 10.1666 4.27618 10.1666 4.00004V1.33337C10.1666 1.05723 10.3905 0.833374 10.6666 0.833374Z" fill="#363636"/>
<path fill-rule="evenodd" clip-rule="evenodd" d="M0.833313 6.66675C0.833313 6.39061 1.05717 6.16675 1.33331 6.16675H14.6666C14.9428 6.16675 15.1666 6.39061 15.1666 6.66675C15.1666 6.94289 14.9428 7.16675 14.6666 7.16675H1.33331C1.05717 7.16675 0.833313 6.94289 0.833313 6.66675Z" fill="#363636"/>
</svg>
